<?xml version="1.0" encoding="iso-8859-1"?>
<!-- Uploaded to: SVG Repo, www.svgrepo.com, Generator: SVG Repo Mixer Tools -->
<!DOCTYPE svg PUBLIC "-//W3C//DTD SVG 1.1//EN" "http://www.w3.org/Graphics/SVG/1.1/DTD/svg11.dtd">
<svg fill="#000000" version="1.1" id="Capa_1" xmlns="http://www.w3.org/2000/svg" xmlns:xlink="http://www.w3.org/1999/xlink" 
	 width="800px" height="800px" viewBox="0 0 233.297 233.297"
	 xml:space="preserve">
<g>
	<path d="M191.369,72.793c1.809-1.811,2.351-4.533,1.371-6.896c-0.979-2.365-3.286-3.906-5.847-3.906h-22.932l10.576-19.629
		c1.746,0.371,3.987,0.027,6.506-2.283c1.924-1.764,2.946-4.072,2.807-6.328c-0.131-2.102-0.867-4.264-3.545-5.559
		c-2.5-1.209-1.072,0.266-7.191-2.881c0.202-0.25,1.655-2.848,1.861-3.178c1.637,0.393,3.099,0.801,4.838,0.057
		c2.232-0.957,4.464-3.344,5.717-5.672c2.448-4.541,0.305-13.977,0.052-15.039c0,0-0.187-0.854-0.937-1.219
		c-0.751-0.363-1.029-0.293-1.533-0.109c-1.023,0.371-10.084,3.771-12.53,8.314c-1.254,2.326-1.707,4.924-1.277,7.314
		c0.331,1.844,1.151,3.408,2.362,4.555c-0.319,0.467-1.853,3.043-1.971,3.143c-6.312-3.545-4.219-3.32-6.767-4.762
		c-2.88-1.629-6.328-1.885-9.616-0.885c-3.204,0.973-6.151,3.164-8.301,6.168c-2.072,2.898-2.873,5.648-2.381,8.174
		c0.447,2.295,1.957,4.332,4.461,6.072L135.42,61.99H46.404c-2.56,0-4.867,1.541-5.847,3.906c-0.979,2.363-0.438,5.086,1.372,6.896
		l65.229,65.229v75.311l-26.763,3.783c-5.613,0.943-9.624,3.623-9.624,8.09c0,4.469,4.309,8.092,9.624,8.092h72.507
		c5.315,0,9.624-3.623,9.624-8.092c0-4.467-3.93-7.281-9.624-8.09l-26.763-3.783v-75.311L191.369,72.793z"/>
</g>
</svg>